<mxfile host="app.diagrams.net" modified="2024-09-02T11:27:00.185Z" agent="Mozilla/5.0 (Windows NT 10.0; Win64; x64) AppleWebKit/537.36 (KHTML, like Gecko) Chrome/128.0.0.0 Safari/537.36" version="24.5.4" etag="zW4ArWLl_IB3peIshdjr" type="github">
  <diagram name="Страница — 1" id="sgqKikHD0Al6u6ZQMpv4">
    <mxGraphModel>
      <root>
        <mxCell id="0" />
        <mxCell id="1" parent="0" />
      </root>
    </mxGraphModel>
  </diagram>
</mxfile>
